<svg width="512" height="512" viewBox="0 0 512 512" fill="none" xmlns="http://www.w3.org/2000/svg">
<path d="M332.12 415.72V381.16H371.48C377.24 381.16 380.12 377.96 380.12 371.56V283.88C380.12 276.627 382.36 270.547 386.84 265.64C391.533 260.733 397.613 258.28 405.08 258.28H410.2V252.52H405.08C397.613 252.52 391.533 250.067 386.84 245.16C382.36 240.253 380.12 234.173 380.12 226.92V139.24C380.12 132.84 377.24 129.64 371.48 129.64H332.12V95.08H386.52C396.12 95.08 403.907 98.1733 409.88 104.36C416.067 110.333 419.16 118.12 419.16 127.72V226.92C419.16 233.107 422.04 236.2 427.8 236.2H464.6V274.6H427.8C422.04 274.6 419.16 277.693 419.16 283.88V383.08C419.16 392.68 416.067 400.467 409.88 406.44C403.907 412.627 396.12 415.72 386.52 415.72H332.12Z" fill="#5865F2"/>
<path d="M127.6 415.72C118 415.72 110.107 412.627 103.92 406.44C97.9467 400.467 94.96 392.68 94.96 383.08V283.88C94.96 277.693 92.08 274.6 86.32 274.6H49.52V236.2H86.32C92.08 236.2 94.96 233.107 94.96 226.92V127.72C94.96 118.12 97.9467 110.333 103.92 104.36C110.107 98.1733 118 95.08 127.6 95.08H182V129.64H142.64C136.88 129.64 134 132.84 134 139.24V226.92C134 234.173 131.653 240.253 126.96 245.16C122.48 250.067 116.507 252.52 109.04 252.52H103.92V258.28H109.04C116.507 258.28 122.48 260.733 126.96 265.64C131.653 270.547 134 276.627 134 283.88V371.56C134 377.96 136.88 381.16 142.64 381.16H182V415.72H127.6Z" fill="#5865F2"/>
<path d="M205.744 307V221.16H175.552V203.4H255.472V221.16H225.28V307H205.744ZM268.776 307V203.4H333.896V221.16H288.312V246.172H330.344V263.932H288.312V307H268.776Z" fill="white"/>
</svg>
